<svg xmlns="http://www.w3.org/2000/svg"
shape-rendering="geometricPrecision"
width="4000" height="4000" viewBox="0 0 990 990">
  <metadata>null</metadata>

<path d="
M 45.416 422.28
C 70.373 421.214 95.525 422.16 120.509 422.184
C 131.343 422.195 142.176 422.195 153.01 422.158
C 158.865 422.138 164.926 421.73 170.754 422.24
C 170.616 423.013 169.741 423.979 169.325 424.676
C 168.292 426.406 167.329 428.175 166.351 429.937
C 163.741 434.639 161.149 439.356 158.433 443.999
C 157.493 445.607 156.679 447.979 155.414 449.311
C 150.662 450.054 145.319 449.424 140.509 449.432
C 133.331 449.444 126 449.936 118.843 449.613
C 119.674 469.003 118.936 488.6 118.948 508.011
C 118.96 527.379 119.725 546.939 118.816 566.285
C 109 565.735 98.821 566 88.999 566.346
C 88.588 565.819 88.777 564.677 88.781 564.006
C 88.792 562.173 88.768 560.339 88.765 558.505
C 88.753 551.005 88.72 543.506 88.687 536.006
C 88.604 517.024 88.642 498.041 88.667 479.059
C 88.676 472.442 88.752 465.823 88.65 459.206
C 88.602 456.098 88.883 452.719 88.327 449.655
C 79.053 449.625 69.778 449.566 60.503 449.559
C 55.515 449.555 50.446 449.803 45.467 449.503
C 44.555 440.637 45.184 431.188 45.416 422.28 Z"
opacity="1" fill="rgb(25,25,27)" fill-rule="evenodd" />
<path d="
M 136.893 565.539
C 138.493 561.13 140.791 556.878 142.861 552.675
C 145.697 546.918 148.477 541.079 151.852 535.616
C 160.206 535.128 168.641 535.491 177.005 535.493
C 187.168 535.495 197.352 535.234 207.511 535.491
C 225.674 535.952 243.927 534.784 262.073 535.757
C 259.641 543.263 255.4 550.217 251.954 557.298
C 250.918 559.425 249.913 561.578 248.832 563.682
C 248.465 564.396 248.094 565.739 247.463 566.225
C 246.565 566.565 245.18 566.328 244.219 566.327
C 241.98 566.324 239.741 566.335 237.502 566.34
C 229.836 566.359 222.17 566.377 214.504 566.367
C 188.564 566.332 162.547 566.775 136.622 566.207
C 136.712 565.984 136.802 565.761 136.893 565.539 Z"
opacity="1" fill="rgb(25,25,27)" fill-rule="evenodd" />
<path d="
M 145.283 506.713
C 148.788 500.462 152.235 494.113 155.587 487.772
C 157.138 484.839 158.373 480.932 160.584 478.476
C 164.469 477.951 168.59 478.29 172.507 478.286
C 180.007 478.279 187.506 478.299 195.006 478.292
C 215.629 478.271 236.322 477.875 256.93 478.363
C 256.298 479.956 254.653 481.469 253.728 482.968
C 250.238 488.626 246.316 493.998 242.69 499.566
C 241.548 501.319 240.317 503.028 239.254 504.831
C 238.86 505.499 238.373 506.694 237.608 506.96
C 215.42 506.496 193.192 506.742 170.996 506.742
C 164.83 506.742 158.664 506.79 152.498 506.81
C 150.718 506.815 148.932 506.78 147.152 506.805
C 146.541 506.814 145.837 506.997 145.283 506.713 Z"
opacity="1" fill="rgb(26,26,28)" fill-rule="evenodd" />
<path d="
M 162.502 450.576
C 163.734 447.602 165.654 444.856 167.175 442.022
C 170.714 435.427 174.237 428.842 177.998 422.37
C 179.81 421.911 182.132 422.27 184.007 422.257
C 188.34 422.226 192.674 422.24 197.008 422.234
C 210.508 422.214 224.008 422.231 237.508 422.244
C 243.175 422.249 248.843 422.264 254.51 422.286
C 256.678 422.294 259.885 421.677 261.931 422.335
C 260.988 424.843 258.341 427.439 256.903 429.796
C 252.499 437.009 247.605 443.927 243.132 451.1
C 241.68 451.856 238.171 451.145 236.505 451.135
C 231.048 451.103 225.591 451.089 220.134 451.037
C 200.869 450.852 181.379 450.161 162.16 451.226
C 162.274 451.009 162.388 450.792 162.502 450.576 Z"
opacity="1" fill="rgb(25,25,27)" fill-rule="evenodd" />
<path d="
M 268.977 440.12
C 269.376 435.98 269.108 431.666 269.182 427.503
C 269.206 426.173 268.714 423.571 269.351 422.444
C 275.561 422.177 281.793 422.244 288.008 422.255
C 291.605 422.261 295.361 421.974 298.937 422.37
C 298.46 434.848 299.229 447.499 299.245 460.003
C 299.25 464.001 299.261 468 299.258 471.999
C 299.256 473.919 298.903 476.295 299.507 478.124
C 300.92 477.169 302.145 475.364 303.286 474.086
C 305.953 471.098 308.501 467.988 311.212 465.044
C 319.628 455.906 328.299 446.97 336.353 437.504
C 339.505 433.799 342.684 430.141 345.989 426.568
C 347.139 425.325 348.513 423.142 350.064 422.416
C 350.862 422.043 352.175 422.254 353.031 422.242
C 355.69 422.205 358.35 422.216 361.009 422.211
C 367.343 422.198 373.677 422.195 380.011 422.209
C 382.859 422.215 385.945 421.86 388.758 422.233
C 388.712 422.848 387.664 423.423 387.228 423.862
C 385.862 425.235 384.584 426.673 383.27 428.096
C 377.923 433.886 372.402 439.561 367.234 445.512
C 362.023 451.511 356.341 457.046 350.974 462.899
C 340.356 474.481 329.741 486.056 319.117 497.625
C 314.543 502.605 309.811 507.436 305.281 512.456
C 303.432 514.505 300.699 516.578 299.381 519.014
C 298.86 519.975 299.135 521.434 299.129 522.492
C 299.114 524.994 299.097 527.494 299.106 529.996
C 299.136 538.834 299.311 547.705 298.972 556.533
C 298.884 558.848 298.938 561.182 298.932 563.499
C 298.93 564.274 299.15 565.45 298.849 566.15
C 288.982 566.584 279.024 565.638 269.175 566.295
C 268.834 559.892 269.098 553.419 269.106 547.005
C 269.121 534.838 269.154 522.673 269.109 510.507
C 269.024 487.092 268.101 463.524 268.977 440.12 Z"
opacity="1" fill="rgb(25,25,27)" fill-rule="evenodd" />
<path d="
M 320.393 506.467
C 324.495 501.192 328.903 496.058 333.293 491.019
C 335.106 488.938 336.786 486.374 339.089 484.81
C 353.623 505.602 368.866 525.866 383.583 546.535
C 387.098 551.471 390.705 556.389 394.364 561.22
C 395.31 562.468 396.245 563.733 397.145 565.013
C 397.321 565.263 397.997 565.877 397.889 566.188
C 388.846 566.788 379.566 566.217 370.498 566.215
C 367.998 566.214 365.495 566.252 362.995 566.208
C 362.064 566.191 360.715 566.48 359.884 566.038
C 356.128 560.04 351.84 554.321 347.885 548.447
C 342.484 540.425 337.104 532.368 331.554 524.449
C 328.725 520.411 325.985 516.313 323.228 512.226
C 322.171 510.658 320.375 508.811 320.04 506.929
C 320.158 506.775 320.275 506.621 320.393 506.467 Z"
opacity="1" fill="rgb(26,25,28)" fill-rule="evenodd" />
<path d="
M 372.824 482.495
C 380.216 469.058 386.206 454.673 392.648 440.758
C 394.677 436.373 396.666 431.967 398.779 427.623
C 399.634 425.867 400.181 423.826 401.439 422.313
C 406.197 421.714 411.212 422.057 416.005 422.037
C 422.337 422.01 428.695 421.731 435.023 421.893
C 428.243 434.356 422.819 447.54 416.222 460.113
C 413.608 465.096 411.076 470.173 408.802 475.32
C 408.051 477.018 406.555 479.237 406.368 481.083
C 406.28 481.945 406.998 482.898 407.396 483.604
C 408.4 485.383 409.354 487.192 410.282 489.013
C 413.847 496.009 416.749 503.401 420.64 510.221
C 421.122 509.803 421.175 509.072 421.424 508.51
C 421.963 507.297 422.692 506.127 423.329 504.961
C 425.927 500.203 428.261 495.295 430.704 490.457
C 438.61 474.799 446.395 459.072 454.164 443.345
C 456.484 438.65 458.86 433.979 461.212 429.3
C 462.315 427.106 463.271 424.097 464.997 422.348
C 473.339 421.523 482.127 422.251 490.509 422.3
C 492.51 422.312 494.51 422.265 496.51 422.284
C 496.958 422.289 498.48 422.131 498.752 422.377
C 498.478 423.41 497.509 424.393 496.979 425.345
C 495.586 427.847 494.202 430.36 492.947 432.937
C 487.698 443.715 481.808 454.205 476.399 464.908
C 467.411 482.692 457.625 500.076 448.822 517.956
C 443.186 529.405 437.267 540.724 431.347 552.03
C 428.909 556.686 426.825 561.607 424.19 566.146
C 423.658 566.468 422.812 566.291 422.206 566.283
C 420.527 566.261 418.854 566.243 417.18 566.26
C 415.586 565.046 414.488 561.994 413.505 560.253
C 410.595 555.099 407.831 549.868 404.974 544.687
C 397.694 531.487 390.68 518.146 383.638 504.819
C 381.164 500.138 378.589 495.513 376.149 490.814
C 374.939 488.484 373.36 486.068 372.651 483.532
C 372.664 482.795 372.598 483.139 372.824 482.495 Z"
opacity="1" fill="rgb(25,25,28)" fill-rule="evenodd" />
<path d="
M 457.929 518.565
C 462.057 508.474 467.834 498.65 473.033 489.077
C 474.248 489.688 475.173 492.89 475.782 494.189
C 477.979 498.874 480.846 504.039 482.055 509.076
C 482.574 509.079 482.74 508.26 482.937 507.834
C 483.524 506.567 484.262 505.359 484.891 504.11
C 487.568 498.789 490.112 493.379 492.671 487.998
C 499.931 472.732 507.481 457.536 515.312 442.554
C 517.823 437.75 520.255 432.907 522.808 428.125
C 523.811 426.246 524.55 423.683 526.037 422.163
C 534.024 422.019 542.019 422.083 550.01 422.094
C 552.009 422.097 554.009 422.088 556.009 422.104
C 556.666 422.11 557.908 421.956 558.369 422.425
C 549.305 440.61 539.456 458.446 529.971 476.418
C 522.644 490.299 515.525 504.276 508.07 518.089
C 502.937 527.599 497.707 537.169 492.957 546.875
C 489.853 553.218 487.07 560.222 483.227 566.148
C 481.981 566.336 480.345 566.014 479.079 565.937
C 473.993 554.721 468.799 543.486 463.48 532.372
C 462.092 529.471 460.771 526.539 459.374 523.642
C 458.606 522.05 457.564 520.395 457.929 518.565 Z"
opacity="1" fill="rgb(25,25,28)" fill-rule="evenodd" />
<path d="
M 545.477 491.617
C 545.751 482.361 547.936 473.235 551.458 464.69
C 554.183 458.08 558.117 451.578 562.722 446.098
C 586.459 417.858 629.842 412.881 660.99 431.378
C 674.063 439.142 683.292 451.508 689.329 465.247
C 693.586 474.933 695.094 486.245 694.745 496.757
C 694.38 507.737 691.72 518.463 687.188 528.464
C 683.441 536.73 678.027 543.784 671.412 549.943
C 664.801 556.099 657.125 561.111 648.733 564.47
C 622.956 574.788 591.255 568.672 570.627 550.453
C 554.388 536.11 544.839 513.196 545.477 491.617 Z
M 576.437 489.098
C 573.444 510.605 588.004 532.303 608.648 538.608
C 615.954 540.839 624.353 540.881 631.744 539.035
C 636.177 537.928 640.484 536.016 644.263 533.45
C 649.68 529.772 654.108 525.051 657.516 519.475
C 660.821 514.069 663.011 508.04 663.863 501.759
C 665.13 492.412 663.804 482.25 659.556 473.773
C 651.126 456.951 631.883 446.768 613.195 449.891
C 606.974 450.931 601.252 453.32 595.934 456.683
C 590.767 459.951 586.334 464.614 582.945 469.662
C 579.228 475.198 577.347 482.565 576.437 489.098 Z"
opacity="1" fill="rgb(25,25,28)" fill-rule="evenodd" />
<path d="
M 676.441 421.912
C 698.453 422.185 720.494 422.065 742.511 422.086
C 754.513 422.098 767.712 420.529 779.299 424.356
C 803.026 432.193 811.5 463.055 801.252 484.296
C 797.145 492.808 789.612 501.019 780.428 504.01
C 776.273 505.363 772.154 505.918 767.851 506.507
C 766.828 506.648 763.914 506.291 763.378 507.205
C 775.004 522.081 786.357 537.227 798.31 551.851
C 801.208 555.397 804.009 559.016 806.779 562.662
C 807.2 563.216 809.547 565.579 809.346 566.175
C 800.422 566.545 791.429 566.25 782.497 566.233
C 779.895 566.228 777.292 566.255 774.69 566.256
C 773.579 566.257 772.055 566.479 771 566.064
C 769.143 565.334 767.655 561.777 766.592 560.2
C 762.841 554.629 758.901 549.187 755.159 543.608
C 745.262 528.855 734.93 514.396 725.046 499.633
C 720.745 493.209 715.855 486.901 712.121 480.137
C 723.836 479.398 735.771 480.048 747.512 480.16
C 753.897 480.221 761.091 481.019 767.153 478.583
C 777.263 474.521 780.047 459.461 770.901 452.774
C 764.703 448.241 756.227 449.417 749.008 449.424
C 738.508 449.435 728.008 449.441 717.508 449.437
C 712.54 449.435 706.956 450.131 702.053 449.335
C 701.075 449.177 700.298 448.141 699.639 447.475
C 697.845 445.66 696.144 443.784 694.458 441.87
C 688.613 435.235 682.762 427.824 675.978 422.141
C 676.132 422.065 676.286 421.988 676.441 421.912 Z"
opacity="1" fill="rgb(26,25,28)" fill-rule="evenodd" />
<path d="
M 820.952 423.104
C 820.983 422.506 820.926 422.852 821.231 422.091
C 826.499 422.03 831.757 421.948 837.026 422.009
C 838.532 422.026 841.304 421.51 842.609 422.361
C 845.598 424.31 847.96 428.588 850.185 431.339
C 855.499 437.91 860.842 444.457 866.104 451.071
C 882.255 471.375 899.344 490.961 915.049 511.615
C 915.734 501.168 915.128 490.478 915.118 480.006
C 915.099 460.758 915.15 441.505 914.756 422.262
C 924.733 421.935 934.761 422.504 944.729 422.08
C 945.176 426.467 944.787 431.086 944.784 435.499
C 944.779 444.5 944.757 453.5 944.748 462.501
C 944.725 485.834 944.783 509.168 944.778 532.501
C 944.775 543.709 944.252 555.036 944.658 566.229
C 938.948 566.357 933.216 566.153 927.503 566.143
C 925.625 566.14 922.054 566.829 920.442 565.765
C 917.117 563.573 914.599 558.759 912.111 555.666
C 905.488 547.434 898.585 539.4 892.062 531.093
C 885.429 522.646 878.328 514.48 871.364 506.303
C 861.019 494.157 851.059 481.692 840.934 469.363
C 836.37 463.805 831.878 458.156 827.201 452.693
C 825.273 450.44 821.735 447.427 820.906 444.522
C 820.319 442.466 820.861 439.635 820.877 437.499
C 820.914 432.724 820.63 427.867 820.952 423.104 Z"
opacity="1" fill="rgb(25,25,28)" fill-rule="evenodd" />
<path d="
M 820.973 459.544
C 822.261 459.926 823.849 462.77 824.727 463.818
C 828.191 467.955 831.631 472.131 834.999 476.347
C 837.906 479.986 841.021 483.504 844.16 486.944
C 845.916 488.867 848.658 491.239 849.621 493.693
C 850.309 495.445 849.813 498.127 849.818 499.994
C 849.834 504.829 849.832 509.664 849.841 514.499
C 849.863 526.165 849.828 537.83 849.818 549.496
C 849.813 555.011 849.402 560.702 849.793 566.196
C 842.698 566.124 835.601 566.149 828.504 566.119
C 826.67 566.112 824.837 566.118 823.003 566.135
C 822.406 566.14 821.413 566.388 820.895 566.083
C 821.099 555.405 820.788 544.69 820.779 534.008
C 820.757 509.188 820.742 484.36 820.973 459.544 Z"
opacity="1" fill="rgb(25,25,28)" fill-rule="evenodd" />

</svg>